<?xml version="1.0" encoding="UTF-8" standalone="no"?>
<svg
   width="114.947mm"
   height="114.947mm"
   viewBox="0 0 407.29252 407.29251"
   id="svg2"
   version="1.1"
   xmlns="http://www.w3.org/2000/svg"
>
  <title
     id="title5759">B$</title>
  <defs
     id="defs4">
    <rect
       id="SVGID_1_"
       width="252.03"
       height="238.7"
       x="0"
       y="0" />
    <rect
       id="SVGID_3_"
       width="252.03"
       height="238.7"
       x="0"
       y="0" />
  </defs>
  <g
     id="layer1"
     transform="matrix(0.99999763,0,0,0.99999763,-2.2895473,9.9417289)"
     style="fill:#95007f;fill-opacity:1;stroke-width:1">
    <rect
       style="opacity:0.998;fill:#95007f;fill-opacity:1;stroke-width:2.83464;stroke-linecap:square;paint-order:stroke fill markers"
       id="rect1159"
       width="407.29349"
       height="407.29349"
       x="2.2895527"
       y="-9.9417524"
       ry="36.842911" />
  </g>
  <style
     type="text/css"
     id="style10">&#10;	.st0{clip-path:url(#SVGID_2_);}&#10;	.st1{clip-path:url(#SVGID_4_);}&#10;</style>
  <path
     style="fill:#ffffff;stroke-width:1.31773"
     d="M 50.236045,295.64749 V 111.64531 H 123.9088 q 20.30492,0 33.87149,6.0196 13.56657,6.0196 20.39478,16.71113 6.8282,10.60169 6.8282,24.43779 0,10.78138 -4.31255,18.95726 -4.31255,8.08603 -11.85952,13.29703 -7.45712,5.12116 -17.07051,7.27743 v 1.7969 q 10.51184,0.44922 19.67601,5.92976 9.25402,5.48053 15.00409,15.36346 5.75007,9.79309 5.75007,23.35965 0,14.64471 -7.27743,26.14485 -7.18759,11.41029 -21.29323,18.0588 -14.10563,6.64852 -34.76994,6.64852 z m 38.902806,-31.80506 h 31.715219 q 16.26191,0 23.71903,-6.1993 7.45712,-6.28913 7.45712,-16.71113 0,-7.63681 -3.68363,-13.47673 -3.68364,-5.83991 -10.51185,-9.16417 -6.73836,-3.32425 -16.08222,-3.32425 H 89.138851 Z m 0,-75.20012 h 28.840189 q 7.99619,0 14.19548,-2.78519 6.28914,-2.87503 9.88293,-8.08603 3.68364,-5.211 3.68364,-12.48843 0,-9.97277 -7.09774,-16.08222 -7.0079,-6.10945 -19.94555,-6.10945 H 89.138851 Z M 278.17218,318.64776 V 88.645032 h 14.73455 V 318.64776 Z M 317.25467,164.5639 q -1.07814,-10.87122 -9.25401,-16.89082 -8.17588,-6.01961 -22.19167,-6.01961 -9.52355,0 -16.08223,2.69535 -6.55867,2.6055 -10.06262,7.27743 -3.4141,4.67193 -3.4141,10.60169 -0.17969,4.94146 2.06643,8.6251 2.33597,3.68364 6.37898,6.37898 4.04302,2.6055 9.34386,4.58209 5.30085,1.88674 11.32045,3.23441 l 16.53145,3.95317 q 12.0392,2.69535 22.10182,7.18759 10.06262,4.49224 17.4299,11.05091 7.36727,6.55867 11.41029,15.45331 4.13286,8.89464 4.22271,20.39477 -0.0899,16.89083 -8.62511,29.28941 -8.44541,12.30874 -24.43779,19.13695 -15.90253,6.73836 -38.36373,6.73836 -22.28152,0 -38.81297,-6.8282 -16.4416,-6.82821 -25.69561,-20.21509 -9.16417,-13.47672 -9.6134,-33.33243 h 37.64498 q 0.62891,9.25402 5.30084,15.45331 4.76178,6.10945 12.66812,9.25402 7.99619,3.05472 18.05881,3.05472 9.88293,0 17.16036,-2.87503 7.36728,-2.87504 11.41029,-7.99619 4.04302,-5.12116 4.04302,-11.76967 0,-6.19929 -3.68364,-10.422 -3.59379,-4.22271 -10.60169,-7.18759 -6.91805,-2.96487 -16.98067,-5.39068 l -20.03539,-5.03131 q -23.26981,-5.66023 -36.74653,-17.69943 -13.47672,-12.03921 -13.38688,-32.43398 -0.0898,-16.71114 8.89464,-29.19957 9.07433,-12.48843 24.88701,-19.49632 15.81269,-7.0079 35.93793,-7.0079 20.48462,0 35.75824,7.0079 15.36346,7.00789 23.89872,19.49632 8.53526,12.48843 8.80479,28.93003 z"
     id="text1"
     aria-label="B$" />
</svg>
